<!DOCTYPE html PUBLIC "-//W3C//DTD XHTML 1.0 Transitional//EN" "http://www.w3.org/TR/xhtml1/DTD/xhtml1-transitional.dtd">
<html xmlns="http://www.w3.org/1999/xhtml" xml:lang="en" lang="en">
<head>
<title>get_iplayer forums - Don't know how to use get_iplayer .nfo file with Kodi</title>
<meta http-equiv="content-type" content="text/html; charset=UTF-8" />
<meta name="robots" content="index,follow" />
<link type="text/css" rel="stylesheet" rev="stylesheet" href="screen.css"/>
<meta name="viewport" content="width=device-width, initial-scale=1.0">
<link rel="shortcut icon" href="/favicon.ico" />
<link rel="icon" type="image/png" href="/favicon-16x16.png" sizes="16x16">
<link rel="icon" type="image/png" href="/favicon-32x32.png" sizes="32x32">
<link rel="icon" type="image/png" href="/favicon-96x96.png" sizes="96x96">
<link rel="icon" sizes="192x192" href="/nice-highres.png" />
<link rel="apple-touch-icon" href="/apple-touch-icon.png" />
</head>
<body>
<div class="frontnavwrap">
<div class="page-title">
<h1 style="color:#fff;">These forums are archived</h1>
<h3 style="color:#fff;">See <a style="color:#fff;" href="https://www.squarepenguin.co.uk/blog/squarepenguin-forums-archived/">this post</a> for further info</h3>
</div>
</div>
<nav class="navbar">
<div class="nav-container">
<ul class="">
<li> <a href="https://www.squarepenguin.co.uk/"> Home </a></li>
<li> <a href="https://www.squarepenguin.co.uk/blog/" class=""> Blog </a></li>
<li> <a href="https://www.squarepenguin.co.uk/features/" class=""> Features </a></li>
<li> <a href="https://www.squarepenguin.co.uk/faqs/" class=""> FAQ </a></li>
<li> <a href="https://www.squarepenguin.co.uk/downloads/" class=""> Downloads </a></li>
<li> <a href="https://www.squarepenguin.co.uk/wiki/" class=""> Wiki </a></li>
<li> <a href="https://www.squarepenguin.co.uk/guides/" class=""> Guides </a></li>
<li> <a href="https://forums.squarepenguin.co.uk/" class=""> Forums </a></li>
</ul>
</div>
</nav>
<div id="container">
<h1 class="forumtitle">get_iplayer forums</h1>
<h3 class="forumsubtitle">Forum archived. Posting disabled.</h3>
<div class="navigation"><a href="index.html">get_iplayer forums</a> &gt; <a href="forum-23.html">Off-Topic</a> &gt; <a href="forum-25.html">Any Other Business</a> &gt; Don't know how to use get_iplayer .nfo file with Kodi</div>
<div id="pagetitle"><h2>Don't know how to use get_iplayer .nfo file with Kodi</h2></div>
<div id="content">
<div class="post">
<div class="header">
<div class="author"><h2>user-1466</h2></div><div class="dateline">14-11-2016, 09:39 PM</div>
</div>
<div class="message">I am trying to get get_iplayer to create an output that can be use with can be scrapred with Kodi. I just can not get it to work.<br />
<br />
<br />
<div class="gipcodeblock">
<h3 class="giptitle">get_iplayer Output:</h3><div class="body" dir="ltr"><code>get_iplayer -g 13 --metadata=kodi<br />
get_iplayer 2.97-ppa26, Copyright (C) 2008-2010 Phil Lewis<br />
  This program comes with ABSOLUTELY NO WARRANTY; for details use --warranty.<br />
  This is free software, and you are welcome to redistribute it under certain<br />
  conditions; use --conditions for details.<br />
<br />
Matches:<br />
13:	4 o'Clock Club: Series 5 - Social Worker, CBBC, b077r4nn<br />
<br />
INFO: 1 Matching Programmes<br />
INFO: Checking existence of original version<br />
INFO: hvfvhigh1,hvfvhigh2,hlsvhigh1,hvfhigh1,hvfhigh2,hlshigh1,hvfstd1,hvfstd2,hlsstd1,hvflow1,hvflow2 modes will be tried for version original<br />
INFO: Trying hvfvhigh1 mode to record tv: 4 o'Clock Club: Series 5 - 8. Social Worker<br />
INFO: File name prefix = 4_oClock_Club_Series_5_-_8._Social_Worker_b077r4nn_original                 <br />
INFO: Begin recording file: /BTS/iPlayer/4_oClock_Club_Series_5_-_8._Social_Worker_b077r4nn_original.partial.mp4.ts<br />
INFO: Recorded: 353.79MB in 00:00:56 at 51755kbps to /BTS/iPlayer/4_oClock_Club_Series_5_-_8._Social_Worker_b077r4nn_original.partial.mp4.ts<br />
INFO: Begin converting file: /BTS/iPlayer/4_oClock_Club_Series_5_-_8._Social_Worker_b077r4nn_original.partial.mp4.ts<br />
frame= 4010 fps=0.0 q=-1.0 size=   33706kB time=00:02:40.36 bitrate=1721.9kbits/frame= 7118 fps=7100 q=-1.0 size=   59506kB time=00:04:44.67 bitrate=1712.4kbitsframe=10389 fps=6397 q=-1.0 size=   86773kB time=00:06:55.48 bitrate=1710.9kbitsframe=11185 fps=5259 q=-1.0 size=   93501kB time=00:07:27.36 bitrate=1712.2kbitsframe=11583 fps=4410 q=-1.0 size=   96304kB time=00:07:43.36 bitrate=1702.6kbitsframe=12733 fps=4072 q=-1.0 size=  105223kB time=00:08:29.31 bitrate=1692.5kbitsframe=16480 fps=4543 q=-1.0 size=  137286kB time=00:10:59.20 bitrate=1706.1kbitsframe=17291 fps=4189 q=-1.0 size=  144085kB time=00:11:31.66 bitrate=1706.5kbitsframe=21329 fps=4608 q=-1.0 size=  177485kB time=00:14:13.12 bitrate=1704.3kbitsframe=23263 fps=4523 q=-1.0 size=  193263kB time=00:15:30.56 bitrate=1701.4kbitsframe=23441 fps=3997 q=-1.0 size=  194881kB time=00:15:37.64 bitrate=1702.6kbitsframe=23466 fps=3446 q=-1.0 size=  195121kB time=00:15:38.70 bitrate=1702.8kbitsframe=24622 fps=3369 q=-1.0 size=  204557kB time=00:16:24.83 bitrate=1701.5kbitsframe=25578 fps=3274 q=-1.0 size=  212309kB time=00:17:03.10 bitrate=1700.0kbitsframe=29521 fps=3552 q=-1.0 size=  245358kB time=00:19:40.80 bitrate=1702.2kbitsframe=33053 fps=3751 q=-frame=42025 fps=4091 q=-1.0 Lsize=  349337kB time=00:28:00.98 bitrate=1702.4kbits/s    <br />
INFO: Converted file: /BTS/iPlayer/4_oClock_Club_Series_5_-_8._Social_Worker_b077r4nn_original.partial.mp4<br />
INFO: Recorded file: /BTS/iPlayer/4_oClock_Club_Series_5_-_8._Social_Worker_b077r4nn_original.mp4<br />
<br />
INFO: Writing kodi metadata to file '/BTS/iPlayer/4_oClock_Club_Series_5_-_8._Social_Worker_b077r4nn_original.nfo'<br />
INFO: MP4 tagging MP4 file<br />
<br />
 Started writing to temp file.<br />
 Progress: =======================================================&gt;100% |<br />
 Finished writing to temp file.<br />
</code></div>
</div>
<br />
This is output nfo file "4_oClock_Club_Series_5_-_8._Social_Worker_b077r4nn_original.nfo"<br />
<div class="gipcodeblock">
<h3 class="giptitle">get_iplayer Output:</h3><div class="body" dir="ltr"><code>&lt;?xml version="1.0" encoding="UTF-8" standalone="yes"?&gt;<br />
&lt;episodedetails&gt;<br />
	&lt;title&gt;Social Worker&lt;/title&gt;<br />
	&lt;plot&gt;When a social worker pays a visit, Nero pretends his home life is like a perfect dream. But keeping up the lie proves to be a nightmare.&lt;/plot&gt;<br />
	&lt;thumb&gt;http://ichef.bbci.co.uk/images/ic/150x84/p02zmdw2.jpg&lt;/thumb&gt;<br />
	&lt;aired&gt;2016-11-09&lt;/aired&gt;<br />
	&lt;season&gt;5&lt;/season&gt;<br />
	&lt;episode&gt;8&lt;/episode&gt;<br />
	&lt;studio&gt;CBBC&lt;/studio&gt;<br />
	&lt;genre&gt;Children's&lt;/genre&gt;&lt;genre&gt;Entertainment &amp;amp; Comedy&lt;/genre&gt;<br />
	&lt;id&gt;b077r4nn&lt;/id&gt;<br />
&lt;/episodedetails&gt;</code></div>
</div>
<br />
[Image: <a href="http://i1250.photobucket.com/albums/hh537/mulderfbi1hello20161116/kodi-nfo_zps2e60ahzc.jpg">http://i1250.photobucket.com/albums/hh53...60ahzc.jpg</a>]<br />
<br />
Kodi (15.2)<br />
get_iplayer (2.97)</div>
</div>
<div class="post">
<div class="header">
<div class="author"><h2>user-2</h2></div><div class="dateline">14-11-2016, 11:50 PM</div>
</div>
<div class="message">All you have shown is a configuration dialog for a Kodi media source, so it isn't clear what your problem is. All I can say for sure is that you are using filenames that won't work with the Kodi scraper. See Filenames and Directories section of examples page in wiki.</div>
</div>
<div class="post">
<div class="header">
<div class="author"><h2>user-1466</h2></div><div class="dateline">16-11-2016, 08:51 PM</div>
</div>
<div class="message">Still not been able to get this to work. So when I select <span style="font-style: italic;" class="mycode_i">Episode Infomation</span> nothing is displayed. <br />
<br />
<br />
<div class="gipcodeblock">
<h3 class="giptitle">get_iplayer Output:</h3><div class="body" dir="ltr"><code>get_iplayer -g 14 --metadata=kodi --fileprefix="&lt;nameshort&gt;&lt;.senum&gt;&lt;.episodeshort&gt;" --whitespace<br />
get_iplayer 2.97-ppa26, Copyright (C) 2008-2010 Phil Lewis<br />
  This program comes with ABSOLUTELY NO WARRANTY; for details use --warranty.<br />
  This is free software, and you are welcome to redistribute it under certain<br />
  conditions; use --conditions for details.<br />
<br />
Matches:<br />
14:	4 o'Clock Club: Series 5 - Social Worker, CBBC, b077r4nn<br />
<br />
INFO: 1 Matching Programmes<br />
INFO: Checking existence of original version<br />
INFO: hvfvhigh1,hvfvhigh2,hlsvhigh1,hvfhigh1,hvfhigh2,hlshigh1,hvfstd1,hvfstd2,hlsstd1,hvflow1,hvflow2 modes will be tried for version original<br />
INFO: Trying hvfvhigh1 mode to record tv: 4 o'Clock Club: Series 5 - 8. Social Worker<br />
INFO: File name prefix = 4 oClock Club.s05e08.Social Worker                 <br />
INFO: Begin recording file: /BTS/iPlayer/4 oClock Club.s05e08.Social Worker.partial.mp4.ts<br />
INFO: Recorded: 353.79MB in 00:00:48 at 60381kbps to /BTS/iPlayer/4 oClock Club.s05e08.Social Worker.partial.mp4.ts<br />
INFO: Begin converting file: /BTS/iPlayer/4 oClock Club.s05e08.Social Worker.partial.mp4.ts<br />
frame= 6570 fps=0.0 q=-1.0 size=   54945kB time=00:04:22.86 bitrate=1712.3kbits/frame=13203 fps=13201 q=-1.0 size=  109374kB time=00:08:48.12 bitrate=1696.5kbitframe=19722 fps=13147 q=-1.0 size=  164043kB time=00:13:08.86 bitrate=1703.5kbitframe=25896 fps=12947 q=-1.0 size=  214941kB time=00:17:15.77 bitrate=1700.0kbitframe=32119 fps=12847 q=-1.0 size=  266686kB time=00:21:24.77 bitrate=1700.4kbitframe=38398 fps=12799 q=-1.0 size=  318675kB time=00:25:35.84 bitrate=1699.8kbitframe=42025 fps=13040 q=-1.0 Lsize=  349337kB time=00:28:00.98 bitrate=1702.4kbits/s    <br />
INFO: Converted file: /BTS/iPlayer/4 oClock Club.s05e08.Social Worker.partial.mp4<br />
INFO: Recorded file: /BTS/iPlayer/4 oClock Club.s05e08.Social Worker.mp4<br />
<br />
INFO: Writing kodi metadata to file '/BTS/iPlayer/4 oClock Club.s05e08.Social Worker.nfo'<br />
INFO: MP4 tagging MP4 file<br />
<br />
 Started writing to temp file.<br />
 Progress: =======================================================&gt;100% |<br />
 Finished writing to temp file.</code></div>
</div>
<br />
<br />
<div class="gipcodeblock">
<h3 class="giptitle">get_iplayer Output:</h3><div class="body" dir="ltr"><code>&lt;?xml version="1.0" encoding="UTF-8" standalone="yes"?&gt;<br />
&lt;episodedetails&gt;<br />
	&lt;title&gt;Social Worker&lt;/title&gt;<br />
	&lt;plot&gt;When a social worker pays a visit, Nero pretends his home life is like a perfect dream. But keeping up the lie proves to be a nightmare.&lt;/plot&gt;<br />
	&lt;thumb&gt;http://ichef.bbci.co.uk/images/ic/150x84/p02zmdw2.jpg&lt;/thumb&gt;<br />
	&lt;aired&gt;2016-11-09&lt;/aired&gt;<br />
	&lt;season&gt;5&lt;/season&gt;<br />
	&lt;episode&gt;8&lt;/episode&gt;<br />
	&lt;studio&gt;CBBC&lt;/studio&gt;<br />
	&lt;genre&gt;Children&#39;s&lt;/genre&gt;&lt;genre&gt;Entertainment &amp;amp; Comedy&lt;/genre&gt;<br />
	&lt;id&gt;b077r4nn&lt;/id&gt;<br />
&lt;/episodedetails&gt;</code></div>
</div>
<br />
<div class="gipcodeblock">
<h3 class="giptitle">get_iplayer Output:</h3><div class="body" dir="ltr"><code>ls -al /BTS/iPlayer/<br />
total 698716<br />
drwxrwxrwx 3 amiga amiga      4096 Nov 16 12:51 .<br />
drwxr-xr-x 4 root  root       4096 Nov 13 22:15 ..<br />
-rw-rw-r-- 1 hello hello       450 Nov 16 12:46 4 oClock Club.s05e07.Removal.nfo<br />
-rw-rw-r-- 1 hello hello 357727381 Nov 16 12:51 4 oClock Club.s05e08.Social Worker.mp4<br />
-rw-rw-r-- 1 hello hello       525 Nov 16 12:51 4 oClock Club.s05e08.Social Worker.nfo<br />
-rw-rw-r-- 1 hello hello 357727381 Nov 14 20:19 4_oClock_Club_Series_5_-_8._Social_Worker_b077r4nn_original.mp4<br />
drwxrwxr-x 2 hello hello      4096 Nov 16 12:49 Untitled Folder</code></div>
</div>
<br />
[Image: <a href="http://i1250.photobucket.com/albums/hh537/mulderfbi1hello20161116/kodi-20161116-001_zps0b3lxfy6.jpg">http://i1250.photobucket.com/albums/hh53...3lxfy6.jpg</a>]<br />
<br />
<br />
[Image: <a href="http://i1250.photobucket.com/albums/hh537/mulderfbi1hello20161116/kodi-20161116-002_zpsdyfobpab.jpg">http://i1250.photobucket.com/albums/hh53...fobpab.jpg</a>]<br />
<br />
[Image: <a href="http://i1250.photobucket.com/albums/hh537/mulderfbi1hello20161116/kodi-20161116-003_zpsp2grlkie.jpg">http://i1250.photobucket.com/albums/hh53...grlkie.jpg</a>]<br />
<br />
[Image: <a href="http://i1250.photobucket.com/albums/hh537/mulderfbi1hello20161116/kodi-20161116-004_zps2peestlo.jpg">http://i1250.photobucket.com/albums/hh53...eestlo.jpg</a>]<br />
<br />
[Image: <a href="http://i1250.photobucket.com/albums/hh537/mulderfbi1hello20161116/kodi-20161116-005_zpsnzpas9bj.jpg">http://i1250.photobucket.com/albums/hh53...pas9bj.jpg</a>]</div>
</div>
<div class="post">
<div class="header">
<div class="author"><h2>user-2</h2></div><div class="dateline">16-11-2016, 09:45 PM</div>
</div>
<div class="message">The file names l0ok OK, which is as far as get_iplayer can take you. Now you need to set up a folder hierarchy and add the show-level metadata (get_iplayer only produces metadata for individual episodes).  Go to the Kodi wiki and look at the page on naming video files/TV shows and also look at the pages with examples of NFO files for tv shows and episodes.</div>
</div>
<div class="post">
<div class="header">
<div class="author"><h2>user-30</h2></div><div class="dateline">16-11-2016, 09:49 PM</div>
</div>
<div class="message">Have you manually refreshed the library since adding the media file and nfo?<br />
<br />
Doesn't Kodi only add nfo files once on the first initial library add/scan? I think you have to manually refresh each added media file to see it for newly added files. And for whatever reason I don't think it will 'discover' the nfo file when you add a media file to an existing library, you have to manually refresh and then select something like 'don't get metadata from internet' or something like that. <br />
<br />
It's been a few years since I've used Kodi (actually I don't think it was called Kodi yet the last time I used it it was that long ago!) but I remember running into something like this once. <br />
.</div>
</div>
</div>
<div class="navigation"><a href="index.html">get_iplayer forums</a> &gt; <a href="forum-23.html">Off-Topic</a> &gt; <a href="forum-25.html">Any Other Business</a> &gt; Don't know how to use get_iplayer .nfo file with Kodi</div>
</div>
<div class="footer">
<div class="footer-text">
<p class="footernote"> Site design Copyright &copy; SquarePenguin; <a href="http://creativecommons.org/licenses/by/4.0/">some rights reserved.</a></p>
<p class="footernote"><a href="https://www.squarepenguin.co.uk/attribution/">Attribution of Licensed Works</a></p>
</div>
</div>
<div class="frontnavwrap">
<div class="page-title">
<h1 style="color:#fff;">These forums are archived</h1>
<h3 style="color:#fff;">See <a style="color:#fff;" href="https://www.squarepenguin.co.uk/blog/squarepenguin-forums-archived/">this post</a> for further info</h3>
</div>
</div>
</body>
</html>
